# xmcd
#
# Track frame offsets:
#	150
#	5892
#	24477
#	50032
#	74130
#	93735
#	113410
#	135410
#	156135
#
# Disc length: 2437 seconds
#
# Revision: 4
# Processed by: cddbd v1.5.1PL0 Copyright (c) Steve Scherf et al.
# Submitted via: EasyCDDAExtractor 7.5.0.1
#
DISCID=7a098309
DTITLE=Spandau Ballet - Through The Barricades
DYEAR=1986
DGENRE=Pop
TTITLE0=Barricades
TTITLE1=Cross The Line
TTITLE2=Man In Chains
TTITLE3=How Many Lies
TTITLE4=Virgin
TTITLE5=Fight For Ourselves
TTITLE6=Swept
TTITLE7=Snakes And Lovers
TTITLE8=Through The Barricades
EXTD=more info\nMillenniumMusicProjectFormat, syntax as follows:\nTitle{Subtit
EXTD=le}[info](Lyricist;Composer;Date,Artist,Location)[info]\ncorrections to: 
EXTD=windking3@yahoo.com
EXTT0=
EXTT1=
EXTT2=
EXTT3=
EXTT4=
EXTT5=
EXTT6=
EXTT7=
EXTT8=
PLAYORDER=
